<?xml version="1.0" encoding="UTF-8"?>
<svg width="28px" height="28px" viewBox="0 0 28 28" version="1.1" xmlns="http://www.w3.org/2000/svg" xmlns:xlink="http://www.w3.org/1999/xlink">
    <title>DB527F8F-82D5-41B3-9651-764D9AADC66D</title>
    <g id="design" stroke="none" stroke-width="1" fill="none" fill-rule="evenodd">
        <g id="01_로그인" transform="translate(-179.000000, -997.000000)" fill="#FAE100">
            <g id="ic-/-40-/-kakao" transform="translate(179.000000, 997.000000)">
                <g id="Group-4" transform="translate(4.000000, 5.000000)">
                    <polygon id="Fill-1" points="11.846688 11.103288 10.745448 14.533008 12.931968 14.533008 11.871048 11.103288"></polygon>
                    <path d="M28.534296,17.621436 C28.346136,17.765916 28.118496,17.838996 27.854736,17.838996 C27.664056,17.838996 27.509496,17.806236 27.388536,17.738196 C27.267576,17.660916 27.144096,17.531556 27.021456,17.331636 L24.868536,13.865796 L23.842896,14.935116 L23.852976,16.869636 C23.849616,17.161116 23.765616,17.397996 23.596776,17.573556 C23.426256,17.752476 23.197776,17.838996 22.912176,17.838996 C22.675296,17.838996 22.476216,17.773476 22.312416,17.648316 C22.147776,17.516436 22.043616,17.340036 21.999096,17.119116 C21.983976,17.038476 21.979776,16.956996 21.982296,16.869636 L21.979776,9.962316 C21.982296,9.673356 22.063776,9.437316 22.234296,9.258396 C22.402296,9.081996 22.630776,8.992956 22.918056,8.992956 C23.154096,8.992956 23.353176,9.056796 23.515296,9.186996 C23.681616,9.318036 23.784936,9.494436 23.829456,9.715356 C23.845416,9.796836 23.852976,9.879996 23.847936,9.962316 L23.852976,12.792276 L26.787936,9.417996 C26.919816,9.274356 27.036576,9.169356 27.143256,9.097116 C27.251616,9.027396 27.379296,8.992956 27.532176,8.992956 C27.738816,8.992956 27.924456,9.050076 28.091616,9.166836 C28.260456,9.277716 28.362096,9.428916 28.402416,9.622956 C28.403256,9.628836 28.408296,9.656556 28.415856,9.694356 C28.414176,9.722076 28.415856,9.752316 28.420896,9.773316 C28.419216,9.907716 28.391496,10.026996 28.334376,10.128636 C28.277256,10.234476 28.203336,10.336956 28.112616,10.441116 L26.192376,12.536916 L28.463736,16.133796 L28.531776,16.242996 C28.686336,16.487436 28.776216,16.665516 28.800576,16.784796 C28.803096,16.792356 28.806456,16.815036 28.814016,16.843596 C28.813176,16.876356 28.813176,16.893156 28.814016,16.904076 C28.814016,17.237556 28.721616,17.476116 28.534296,17.621436 L28.534296,17.621436 Z M21.516096,17.473596 C21.332976,17.613876 21.101136,17.687796 20.820576,17.687796 L16.923816,17.687796 C16.634016,17.687796 16.400496,17.629836 16.220736,17.508036 C16.039296,17.392956 15.923376,17.199756 15.867096,16.931796 C15.846096,16.819236 15.831816,16.691556 15.825936,16.550436 L15.829296,9.962316 C15.829296,9.673356 15.914976,9.437316 16.084656,9.258396 C16.251816,9.081996 16.481136,8.992956 16.770096,8.992956 C17.005296,8.992956 17.206056,9.056796 17.368176,9.186996 C17.528616,9.318036 17.635296,9.494436 17.680656,9.715356 C17.696616,9.796836 17.702496,9.879996 17.696616,9.962316 L17.694936,16.050636 L20.816376,16.050636 C21.066696,16.050636 21.277536,16.104396 21.447216,16.216116 C21.617736,16.329516 21.726096,16.487436 21.764736,16.691556 C21.778176,16.744476 21.786576,16.808316 21.791616,16.869636 C21.791616,17.128356 21.700056,17.331636 21.516096,17.473596 L21.516096,17.473596 Z M15.274896,17.592036 C15.103536,17.760876 14.897736,17.838996 14.654976,17.838996 C14.223216,17.838996 13.942656,17.660916 13.815816,17.306436 L13.332816,15.883476 L10.324776,15.883476 L9.840096,17.306436 C9.723336,17.660916 9.443616,17.838996 9.003456,17.838996 C8.785056,17.838996 8.599416,17.785236 8.451576,17.669316 C8.303736,17.556756 8.207136,17.392956 8.165136,17.186316 C8.151696,17.127516 8.147496,17.061156 8.147496,16.988076 C8.144136,16.893156 8.158416,16.778916 8.198736,16.644516 C8.233176,16.510956 8.276856,16.374876 8.324736,16.242996 L10.740576,9.586836 C10.816176,9.373476 10.930416,9.220596 11.080776,9.129876 C11.229456,9.039156 11.420136,8.992956 11.652816,8.992956 L12.101376,8.992956 C12.344136,8.992956 12.547416,9.043356 12.712056,9.140796 C12.875856,9.237396 13.006896,9.428076 13.098456,9.705276 L15.353856,16.242996 C15.426936,16.444596 15.476496,16.619316 15.505896,16.763796 C15.524376,16.859556 15.535296,16.935156 15.539496,16.988076 C15.535296,17.227476 15.447936,17.424876 15.274896,17.592036 L15.274896,17.592036 Z M7.559496,16.869636 C7.557816,17.161116 7.472976,17.397996 7.303296,17.573556 C7.136136,17.752476 6.904296,17.838996 6.618696,17.838996 C6.383496,17.838996 6.184416,17.773476 6.021456,17.648316 C5.855976,17.516436 5.753496,17.340036 5.706456,17.119116 C5.690496,17.038476 5.686296,16.956996 5.690496,16.869636 L5.693856,10.785516 L3.928176,10.785516 C3.685416,10.785516 3.475416,10.726716 3.300696,10.617516 C3.125136,10.509996 3.018456,10.349556 2.978136,10.144596 C2.968056,10.089996 2.957976,10.026996 2.951256,9.962316 C2.951256,9.705276 3.043656,9.502836 3.228456,9.362556 C3.410736,9.220596 3.642576,9.144996 3.923136,9.144996 L9.322656,9.144996 C9.566256,9.144996 9.775416,9.202956 9.948456,9.312156 C10.124856,9.422196 10.233216,9.577596 10.276056,9.785916 C10.283616,9.842196 10.290336,9.900996 10.286976,9.962316 C10.286976,10.228596 10.196256,10.425996 10.017336,10.572996 C9.838416,10.712436 9.608256,10.785516 9.326856,10.785516 L7.561176,10.785516 L7.559496,16.869636 Z M16.225776,-8.4e-05 C7.264656,-8.4e-05 0.000336,5.736276 0.000336,12.815796 C0.000336,17.368596 3.010056,21.356076 7.530096,23.637516 L5.999616,29.345316 C5.941656,29.517516 5.988696,29.707356 6.115536,29.832516 C6.203736,29.920716 6.319656,29.968596 6.447336,29.968596 C6.544776,29.968596 6.641376,29.926596 6.728736,29.860236 L13.304256,25.419996 C14.257656,25.556916 15.232896,25.633356 16.225776,25.633356 C25.185216,25.633356 32.452056,19.896156 32.452056,12.815796 C32.452056,5.736276 25.185216,-8.4e-05 16.225776,-8.4e-05 L16.225776,-8.4e-05 Z" id="Fill-2"></path>
                </g>
            </g>
        </g>
    </g>
</svg>